<svg id="레이어_1" data-name="레이어 1" xmlns="http://www.w3.org/2000/svg" viewBox="0 0 11.03 11.95"><defs><style>.cls-1{fill:#fff;}</style></defs><title>장바구니아이콘</title><path class="cls-1" d="M11.73,3.84a1.41,1.41,0,0,0-1.12-.55H9.35a2.85,2.85,0,0,0-5.7,0H2.39a1.41,1.41,0,0,0-1.12.55A1.39,1.39,0,0,0,1,5.07l1.79,6.38a1.41,1.41,0,0,0,1.35,1H8.82a1.41,1.41,0,0,0,1.35-1L12,5.07A1.39,1.39,0,0,0,11.73,3.84ZM8.82,11.53H4.18a.45.45,0,0,1-.43-.33L2,4.81a.46.46,0,0,1,.44-.57h8.22a.43.43,0,0,1,.36.18.42.42,0,0,1,.08.39L9.25,11.2A.45.45,0,0,1,8.82,11.53ZM6.5,1.47A1.91,1.91,0,0,1,8.4,3.29H4.6A1.91,1.91,0,0,1,6.5,1.47Z" transform="translate(-0.99 -0.52)"/></svg>